<?xml version="1.0" encoding="utf-8"?>
<!-- Generator: Adobe Illustrator 26.3.1, SVG Export Plug-In . SVG Version: 6.00 Build 0)  -->
<svg version="1.1" id="Layer_1" xmlns="http://www.w3.org/2000/svg" xmlns:xlink="http://www.w3.org/1999/xlink" x="0px" y="0px"
	 viewBox="0 0 1080 1080" style="enable-background:new 0 0 1080 1080;" xml:space="preserve">
<style type="text/css">
	.st0{fill:#E9C559;stroke:#EFA85F;stroke-width:15;stroke-miterlimit:10;}
	.st1{fill:#C0E1BD;}
	.st2{fill:#C4DE97;}
	.st3{fill:#92CE98;}
	.st4{fill:#92D2C2;}
	.st5{fill:#4D8D76;}
	.st6{fill:#65C39E;}
</style>
<path class="st0" d="M941.58,700.89c0,36.61-46.73,1.21-55.76,34.98l-735.19-5.86c-9.03-33.77-26.99,7.49-26.99-29.13
	c0-225.86,183.1-408.96,408.96-408.96C758.48,291.93,941.58,475.03,941.58,700.89z"/>
<path class="st1" d="M622.97,404.3c-19.42,34.52-45.63,87.28-78.12,166.5c-1.78,4.41-3.56,8.74-5.17,12.98
	c-1.61-4.33-3.31-8.65-5.17-13.15c-32.91-80.24-59.29-133.25-78.88-167.86c6.11-53.61,13.91-70.57,13.91-70.57
	s24-64.63,49.96-103.48c12.98-19.34,19.76-17.39,19.76-17.39s6.7-1.95,19.68,17.39c26.04,38.85,49.96,103.48,49.96,103.48
	S616.86,349.5,622.97,404.3z"/>
<path class="st2" d="M539.68,583.78c0,0,0,0,0,0.08c-17.47,45.13-26.13,82.02-29.26,112.05c-13.91-20.53-33.33-43.43-60.14-68.45
	c-0.93-12.21-1.53-25.19-1.7-39.02c-1.1-86.94,2.54-146.23,7.04-185.67c19.59,34.61,45.97,87.62,78.88,167.86
	C536.37,575.13,538.06,579.46,539.68,583.78z"/>
<path class="st3" d="M448.58,588.45c0.17,13.83,0.76,26.8,1.7,39.02c-8.91-8.31-18.58-16.79-29.09-25.53
	c-39.7-32.91-72.95-58.36-100.34-78.04c-34.44-95.09-33.5-126.72-33.5-126.72s-3.39-68.79,5.34-114.59
	c4.33-22.9,11.28-23.67,11.28-23.67s5.34-4.5,24.85,8.31c39.02,25.53,86.26,75.75,86.26,75.75s13.83,12.64,40.54,59.8
	C451.12,442.22,447.47,501.51,448.58,588.45z"/>
<path class="st2" d="M629.84,588.45c-0.17,14.5-0.76,28.16-1.78,40.88c-26.21,24.6-45.29,47.16-59.04,67.43
	c-3.05-30.2-11.62-67.35-29.35-112.9c0-0.08,0-0.08,0-0.08c1.61-4.24,3.39-8.57,5.17-12.98c32.49-79.22,58.7-131.98,78.12-166.5
	C627.38,443.74,630.94,502.61,629.84,588.45z"/>
<path class="st3" d="M792.53,397.68c0,0,0.93,31.55-33.33,126.38c-27.48,19.76-60.73,45.29-100.6,78.29
	c-11.11,9.25-21.29,18.15-30.54,26.97c1.02-12.72,1.61-26.38,1.78-40.88c1.1-85.84-2.46-144.71-6.87-184.15
	c27.23-48.26,41.39-61.07,41.39-61.07s47.25-50.13,86.35-75.66c19.51-12.81,24.94-8.31,24.94-8.31s7.04,0.76,11.37,23.67
	C795.75,328.81,792.53,397.68,792.53,397.68z"/>
<path class="st2" d="M759.19,524.07c-11.45,31.72-26.89,70.57-47.58,117.65c-8.06,18.32-16.2,34.69-24.26,49.37
	c-10.35,4.16-20.95,8.74-31.89,13.74c-18.49,8.4-34.1,16.88-47.16,25.19c9.16-25.28,16.54-58.1,19.76-100.68
	c9.25-8.82,19.42-17.73,30.54-26.97C698.46,569.36,731.71,543.83,759.19,524.07z"/>
<path class="st4" d="M1007.55,462.15c-13.91,44.53-49.28,103.65-49.28,103.65s-5.6,11.28-28.67,36.64
	c-10.35,11.45-24.43,25.87-43,43.34c-25.36,23.75-59.29,53.27-104.59,89.23c-3.31,2.63-6.62,5.26-10.01,7.89
	c-161.33,126.89-232.24,71.25-232.24,71.25s0,0-0.08-0.08c0-0.08,0-0.17-0.08-0.25c0,0,0,0,0-0.08c-0.08-0.08-0.08-0.17-0.17-0.34
	c0-0.08-0.08-0.17-0.08-0.25c0.08,0.08,0.17,0.17,0.25,0.17c0.17-0.08,0.42-0.34,0.93-0.76c-0.17,0.51-0.34,0.85-0.42,1.02
	c0,0.08,0,0.08,0,0.17c0,0,2.54,0.42,7.04,0.25c0.68,0,1.36,0,2.12-0.08c5.34-0.34,12.81-1.44,22.05-4.67
	c1.1-0.34,2.21-0.76,3.31-1.19c3.48-1.27,7.29-2.88,11.28-4.92c2.21-1.1,4.41-2.29,6.79-3.73c1.27-0.68,2.63-1.44,3.99-2.38
	c1.36-0.76,2.71-1.61,4.07-2.54c4.07-2.71,8.31-5.77,12.72-9.33c2.88-2.29,5.85-4.83,8.91-7.63c1.44-1.27,2.97-2.71,4.5-4.24
	c4.67-4.41,9.42-9.42,14.33-14.93c4.67-5.34,9.42-11.2,14.25-17.56c1.61-2.2,3.31-4.41,4.92-6.7c1.1-1.53,2.29-3.14,3.31-4.75
	c1.19-1.61,2.29-3.22,3.39-4.92c6.7-10.01,13.49-21.04,20.27-33.33c8.06-14.67,16.2-31.04,24.26-49.37
	c20.7-47.08,36.13-85.92,47.58-117.65c58.61-42.16,90.76-57.93,104.25-63.53c5.34-2.21,7.72-2.8,7.72-2.8s65.31-21.97,111.79-26.21
	c23.16-2.04,25.87,4.41,25.87,4.41S1014.51,439.92,1007.55,462.15z"/>
<path class="st4" d="M539.59,813.31c-0.08,0-0.17-0.08-0.25-0.17c0,0.08,0.08,0.17,0.08,0.25c-0.17,0.08-0.59,0.08-1.19,0.17
	c0,0,0,0-0.08,0c-8.82,0.85-60.82,1.61-119.68-81.43c-8.4-11.79-16.88-25.19-25.36-40.54c-8.31-14.93-16.62-31.64-24.85-50.38
	c-20.61-46.91-35.96-85.67-47.41-117.31c-81.68-58.78-112.22-66.5-112.22-66.5s-1.36-0.42-3.73-1.19
	c-14.5-4.75-68.2-21.46-108.06-25.02c-23.16-2.04-25.79,4.41-25.79,4.41s-5.77,3.99,1.19,26.21
	c13.91,44.53,49.28,103.65,49.28,103.65s3.73,7.46,17.56,23.92c10.77,12.98,27.91,31.47,54.46,56.32
	c24.43,22.9,56.92,51.15,99.92,85.42h0.25c4.67,3.99,9.25,7.55,14.17,11.45c99.58,78.21,164.64,87.11,199.92,82.36h0.34
	c0.51-0.08,0.93-0.17,1.44-0.25c1.78-0.25,3.39-0.51,5-0.85c14-2.88,21.97-7.63,24.51-9.25c0.08,0,0.17-0.08,0.25-0.17
	c0.08-0.08,0.17-0.08,0.17-0.17l0.08-0.08c0-0.08,0-0.08,0-0.08c0.08,0,0.08,0,0.08,0c0.25-0.17,0.34-0.25,0.34-0.25s0,0,0.08-0.08
	c0-0.08,0-0.08,0-0.17c0.08-0.17,0.25-0.51,0.42-1.02C540.01,812.97,539.76,813.22,539.59,813.31z"/>
<path class="st2" d="M469.95,729.42c-12.89-8.06-28.16-16.37-46.23-24.6c-10.43-4.75-20.7-9.16-30.62-13.23
	c-8.31-14.93-16.62-31.64-24.85-50.38c-20.61-46.91-35.96-85.67-47.41-117.31c27.4,19.68,60.65,45.12,100.34,78.04
	c10.52,8.74,20.19,17.22,29.09,25.53C453.33,670.55,460.71,703.8,469.95,729.42z"/>
<path class="st5" d="M539.59,813.31v0.42c0,0.08,0,0.08,0,0.08c0,0.17,0,0.25,0,0.25s0,0,0,0.08c0,0-8.06,6.53-25.02,9.67
	c-1.61,0.34-3.22,0.59-5,0.85c-0.51,0.08-0.93,0.17-1.44,0.25h-0.34c-12.3,1.78-29.01,2.8-52,2.12
	c-91.1-3.05-163.11-24.17-178.97-30.2c-1.95-0.68-3.73-1.61-5.6-2.71c-11.28-6.87-61.5-36.05-108.83-41.56
	c-41.48-4.83-90.42,9.42-110.78,16.2c-5.43,1.87-10.43,4.67-14.93,8.31c-7.8,6.19-21.88,14.17-26.89-4.92
	c-7.21-26.89,25.53-65.23,25.53-65.23c20.19-25.79,56.07-40.97,90.67-49.88c25.53-6.62,50.3-9.84,67.52-11.37
	c9.33-0.85,16.54-1.19,20.36-1.36c2.12-0.08,4.07-0.08,6.19,0.17c14.93,1.53,82.53,10.18,173.04,47.08
	c8.48,15.35,16.96,28.75,25.36,40.54c58.87,83.04,110.86,82.28,119.68,81.43c0.08,0,0.08,0,0.08,0c0.59-0.08,1.02-0.08,1.19-0.17
	c0-0.08-0.08-0.17-0.08-0.25C539.42,813.22,539.51,813.31,539.59,813.31z"/>
<path class="st6" d="M655.46,704.82c-18.49,8.4-34.1,16.88-47.16,25.19c9.16-25.28,16.54-58.1,19.76-100.68
	c-26.21,24.6-45.29,47.16-59.04,67.43c-3.05-30.2-11.62-67.35-29.35-112.9c-17.47,45.13-26.13,82.02-29.26,112.05
	c-13.91-20.53-33.33-43.43-60.14-68.45c3.05,43.09,10.43,76.34,19.68,101.96c-12.89-8.06-28.16-16.37-46.23-24.6
	c-10.43-4.75-20.7-9.16-30.62-13.23c8.48,15.35,16.96,28.75,25.36,40.54c58.87,83.04,110.86,82.28,119.68,81.43
	c0.08,0,0.08,0,0.08,0c0.59-0.09,1.19-0.09,1.36-0.17c0-0.08-0.34-0.25-0.34-0.25h0.08c0.08,0.09,0.17,0.17,0.25,0.17h0
	c0,0.09,0.51,0.34,0.51,0.42c0,0,2.54,0.42,7.04,0.25c0.68,0,1.36,0,2.12-0.08c5.34-0.34,12.81-1.44,22.05-4.67
	c1.1-0.34,2.21-0.76,3.31-1.19c3.48-1.27,7.29-2.88,11.28-4.92c2.21-1.1,4.41-2.29,6.79-3.73c1.36-0.76,2.63-1.53,3.99-2.38
	c1.36-0.76,2.71-1.7,4.07-2.54c4.07-2.71,8.31-5.77,12.72-9.33c2.88-2.38,5.85-4.92,8.91-7.63c1.44-1.36,2.97-2.8,4.5-4.24
	c4.67-4.41,9.42-9.41,14.33-14.93c4.67-5.34,9.42-11.2,14.25-17.56c1.61-2.2,3.31-4.41,4.92-6.7c1.1-1.53,2.29-3.14,3.31-4.75
	c1.19-1.61,2.29-3.22,3.39-4.92c6.7-10.01,13.49-21.04,20.27-33.33C677,695.24,666.4,699.82,655.46,704.82z"/>
<path class="st5" d="M1069.39,772.17c-5,19.08-19.08,11.11-26.89,4.92c-4.5-3.65-9.5-6.45-14.93-8.31
	c-20.36-6.79-69.3-21.04-110.78-16.2c-47.33,5.51-97.54,34.69-108.83,41.56c-1.87,1.1-3.65,2.04-5.6,2.71
	c-15.86,6.02-87.87,26.29-178.97,30.2c-70.15,2.97-82.7-11.54-83.8-12.89c0-0.08,0-0.08,0-0.08s0-0.08,0-0.25c0,0,0,0,0-0.08
	c0,0,0-0.51,0-0.42c0,0,3.05,0.85,7.55,0.68c0.68,0,1.36,0,2.12-0.08c5.34-0.34,12.81-1.44,22.05-4.67
	c1.02-0.25,2.12-0.68,3.31-1.19c3.48-1.27,7.29-2.88,11.28-4.92c2.21-1.1,4.41-2.29,6.79-3.73c1.27-0.68,2.63-1.44,3.99-2.38
	c1.36-0.76,2.71-1.61,4.07-2.54c4.07-2.71,8.31-5.77,12.72-9.33c2.88-2.29,5.85-4.83,8.91-7.63c1.44-1.27,2.97-2.71,4.5-4.24
	c4.67-4.41,9.42-9.42,14.33-14.93c4.67-5.34,9.42-11.2,14.25-17.56c1.61-2.2,3.31-4.41,4.92-6.7c1.1-1.53,2.29-3.14,3.31-4.75
	c1.19-1.61,2.29-3.22,3.39-4.92c6.7-10.01,13.49-21.04,20.27-33.33c89.83-36.47,156.92-45.04,171.76-46.57
	c2.12-0.25,4.07-0.25,6.19-0.17c3.99,0.17,11.45,0.51,21.29,1.44c13.91,1.27,32.4,3.56,52.16,7.8
	c38.59,8.31,82.02,23.92,105.09,53.35C1043.85,706.94,1076.6,745.28,1069.39,772.17z"/>
</svg>
